<?xml version="1.0" encoding="UTF-8"?>
<svg width="1601px" height="800px" viewBox="0 0 1601 800" version="1.1" xmlns="http://www.w3.org/2000/svg" xmlns:xlink="http://www.w3.org/1999/xlink">
    <!-- Generator: Sketch 43.2 (39069) - http://www.bohemiancoding.com/sketch -->
    <title>Liquid-Cheese-2</title>
    <desc>Created with Sketch.</desc>
    <defs></defs>
    <g id="Page-1" stroke="none" stroke-width="1" fill="none" fill-rule="evenodd">
        <g id="Liquid-Cheese-2" fill-rule="nonzero">
            <rect id="Rectangle-path" fill="#4E566F" x="0" y="0" width="1600" height="800"></rect>
            <g id="Group">
                <path d="M1600,0 L0,0 L0,719.8 C49,703 99.5,692 150.7,686.3 C262.6,673.6 376.7,683.9 486,705.7 C489.4,706.4 492.8,707.1 496.2,707.7 C613,731.7 727.9,766.7 843.8,799.9 L1600,799.9 L1600,0 Z" id="Shape" fill="#4E566F"></path>
                <path d="M478.4,581 C481.6,581.8 484.8,582.7 487.9,583.5 C684.1,636 876.6,717 1081.4,760.1 C1255.6,796.7 1430.9,789.3 1600,749.9 L1600,0 L0,0 L0,574.9 C52.3,557.3 106.5,547.2 161.1,544 C268.4,537.4 375.7,554.2 478.4,581 Z" id="Shape" fill="#4E566F"></path>
                <path d="M0,0 L0,429.4 C55.6,411 113.5,402.1 171.4,401.7 C274.2,400.9 374.6,424.4 470.7,456.2 C473.7,457.2 476.6,458.2 479.6,459.2 C663.2,521.2 845.3,605.3 1042,651.3 C1228.7,695 1418.3,685.7 1599.9,638.7 L1599.9,0 L0,0 Z" id="Shape" fill="#FAFAFA"></path>
                <path d="M181.8,259.4 C280,265.4 373.7,294.6 463.1,331.5 C465.9,332.6 468.6,333.8 471.4,334.9 C642.4,406.5 814.1,493.4 1002.7,542.6 C1201.5,594.4 1406.1,583.4 1600,527.8 L1600,0 L0,0 L0,283.2 C59,263.6 120.6,255.7 181.8,259.4 Z" id="Shape" fill="#FFFFFF"></path>
                <path d="M1600,0 L0,0 L0,136.3 C62.3,115.4 127.7,108.8 192.2,117.1 C285.8,129.2 372.7,164.8 455.5,206.7 C458.1,208 460.6,209.3 463.2,210.6 C621.6,291.7 782.9,381.5 963.5,433.8 C1174,494.8 1394.3,482.8 1600.1,417.2 L1600.1,0 L1600,0 Z" id="Shape" fill="#FFFFFF"></path>
                <path d="M454.9,86.3 C600.7,177 751.6,269.3 924.1,325 C1132.7,392.4 1355.4,385.8 1562,319.7 C1574.8,315.6 1587.4,311.3 1600.1,306.8 L1600.1,0 L288.1,0 C344.1,21.3 396.8,50.6 447.8,82 C450.2,83.4 452.5,84.9 454.9,86.3 Z" id="Shape" fill="#FFFFFF"></path>
                <path d="M1600,0 L498,0 C616.1,85.8 741.5,164.5 884.8,216.2 C1076.6,285.4 1284.8,290.9 1479.8,237.3 C1520.6,226.1 1560.9,212.1 1600.1,195.6 L1600.1,0 L1600,0 Z" id="Shape" fill="#FFFFFF"></path>
                <path d="M1397.5,154.8 C1444.7,144.2 1491.1,129.5 1536.1,111 C1557.8,102.1 1579.1,92.2 1600,81.5 L1600,0 L643.4,0 C706.3,41.7 773.1,78.2 845.5,107.4 C1020.4,178.1 1214.2,196.1 1397.5,154.8 Z" id="Shape" fill="#FFFFFF"></path>
                <path d="M1315.3,72.4 C1390.6,59.8 1464.2,35.3 1532.1,0 L809.1,0 C966.8,71 1144.7,101 1315.3,72.4 Z" id="Shape" fill="#FFFFFF"></path>
            </g>
        </g>
    </g>
</svg>