<?xml version="1.0" encoding="utf-8"?>
<!-- Generator: Adobe Illustrator 21.1.0, SVG Export Plug-In . SVG Version: 6.00 Build 0)  -->
<svg version="1.1" xmlns="http://www.w3.org/2000/svg" xmlns:xlink="http://www.w3.org/1999/xlink" x="0px" y="0px"
     viewBox="0 0 415 130.1" style="enable-background:new 0 0 415 130.1;" xml:space="preserve">
<style type="text/css">
    .st0{fill:none;stroke:#000000;stroke-width:4;}
    .st1{stroke:#000000;stroke-width:0.75;stroke-miterlimit:10;}
</style>
<g id="Diversitea_1_">
    <path class="st0" d="M25.5,23v26.4c0,23.1,18.7,41.8,41.8,41.8s41.8-18.7,41.8-41.8V23H25.5z"/>
    <path class="st0" d="M25.5,49.4c0,0,18.6-13.7,41.8,7.7c0,0,25.3,25.6,41.8-3.5 M41.7,106h51"/>
</g>
<g id="Layer_3">
    <g>
        <path class="st1" d="M130.9,75.2h4.1V45.5h-4.1v-3.8h12.9c6.1,0,10.7,1.5,13.9,4.5c3.2,3,4.7,7.4,4.7,13.2
            c0,6.6-1.7,11.5-5.2,14.8c-3.5,3.3-8.2,4.9-14.1,4.9h-12.2V75.2z M139.2,75.2h4.3c4.6,0,8.2-1.3,10.6-3.8
            c2.5-2.6,3.7-6.4,3.7-11.6c0-4.8-1.1-8.4-3.4-10.7c-2.3-2.4-5.9-3.6-10.9-3.6h-4.4V75.2z"/>
        <path class="st1" d="M168.2,75.2h4.1V53.8h-4.1V50h8.3v25.2h4.1V79h-12.4V75.2z M171,42.8c0-1.1,0.3-1.9,0.9-2.5
            c0.6-0.6,1.3-0.9,2.2-0.9c0.9,0,1.7,0.3,2.2,0.9c0.6,0.6,0.9,1.4,0.9,2.3c0,1-0.3,1.8-0.9,2.4c-0.6,0.6-1.3,0.9-2.2,0.9
            c-0.9,0-1.7-0.3-2.2-0.9C171.3,44.4,171,43.6,171,42.8z"/>
        <path class="st1" d="M198.8,79h-4.4l-9-25.2H182V50h11.1v3.8h-3.3l7,19.8h0.2l7.5-19.8h-3V50h9.7v3.8h-2.8L198.8,79z"/>
        <path class="st1" d="M229.2,75.2c3,0,5.9-0.9,8.8-2.8v4.1c-3,1.7-6.1,2.6-9.4,2.6c-4.1,0-7.4-1.3-9.8-3.9c-2.4-2.6-3.6-6-3.6-10.2
            c0-4.7,1.2-8.4,3.6-11c2.4-2.6,5.5-3.9,9.4-3.9c3.4,0,6,1.1,7.8,3.4c1.8,2.3,2.8,5.4,2.8,9.5v2.1h-19c0.1,3.2,1,5.7,2.5,7.5
            C223.6,74.3,226,75.2,229.2,75.2z M234.6,61.3c-0.2-5-2.5-7.5-6.9-7.5c-2.3,0-4.1,0.7-5.4,2c-1.3,1.3-2.1,3.1-2.4,5.5H234.6z"/>
        <path class="st1" d="M260.8,54.8c-1-0.2-1.9-0.3-2.8-0.3c-3.1,0-5.4,1.5-6.8,4.4v16.4h4.1V79h-12.4v-3.8h4.1V53.8h-4.1V50h8
            l0.3,4.2h0.1c1.8-2.8,4.3-4.2,7.4-4.2c0.7,0,1.4,0.1,2.1,0.2V54.8z"/>
        <path class="st1" d="M265.6,58c0-2.5,1-4.5,3.1-5.9c2.1-1.4,4.8-2.1,8.2-2.1c2.9,0,5.9,0.5,9.1,1.5v6.8h-4.1v-3.9
            c-1.6-0.4-3.4-0.6-5.3-0.6c-1.8,0-3.4,0.3-4.6,0.9c-1.2,0.6-1.9,1.5-1.9,2.7c0,0.7,0.1,1.3,0.4,1.8c0.3,0.5,0.7,0.9,1.3,1.2
            c0.6,0.3,1.4,0.7,2.3,1c0.9,0.3,2,0.7,3.2,1c1.2,0.4,2.3,0.8,3.5,1.2c1.2,0.4,2.2,0.9,3.1,1.5c0.9,0.6,1.7,1.4,2.2,2.3
            c0.6,0.9,0.9,2,0.9,3.4c0,2.6-1.1,4.6-3.2,6.1c-2.2,1.5-5,2.2-8.6,2.2c-3.2,0-6.3-0.6-9.3-1.9v-6.5h4.1v3.9
            c1.7,0.4,3.5,0.6,5.5,0.6c1.9,0,3.6-0.3,4.9-0.9c1.4-0.6,2-1.6,2-2.9c0-1.4-0.6-2.4-1.8-3.1c-1.2-0.6-2.9-1.3-5.1-1.9
            c-1.2-0.3-2.3-0.7-3.5-1.1c-1.2-0.4-2.2-0.9-3.2-1.6c-1-0.6-1.8-1.4-2.3-2.3C265.9,60.5,265.6,59.4,265.6,58z"/>
        <path class="st1" d="M292.6,75.2h4.1V53.8h-4.1V50h8.3v25.2h4.1V79h-12.4V75.2z M295.4,42.8c0-1.1,0.3-1.9,0.9-2.5
            c0.6-0.6,1.3-0.9,2.2-0.9c0.9,0,1.7,0.3,2.2,0.9c0.6,0.6,0.9,1.4,0.9,2.3c0,1-0.3,1.8-0.9,2.4c-0.6,0.6-1.3,0.9-2.2,0.9
            c-0.9,0-1.7-0.3-2.2-0.9C295.6,44.4,295.4,43.6,295.4,42.8z"/>
        <path class="st1" d="M317.5,75.2h4.1V45.5h-8.3v7.3h-4.1V41.7h29v11.1H334v-7.3h-8.3v29.7h4.1V79h-12.4V75.2z"/>
        <path class="st1" d="M353.5,75.2c3,0,5.9-0.9,8.8-2.8v4.1c-3,1.7-6.1,2.6-9.4,2.6c-4.1,0-7.4-1.3-9.8-3.9c-2.4-2.6-3.6-6-3.6-10.2
            c0-4.7,1.2-8.4,3.6-11c2.4-2.6,5.5-3.9,9.4-3.9c3.4,0,6,1.1,7.8,3.4c1.8,2.3,2.8,5.4,2.8,9.5v2.1h-19c0.1,3.2,1,5.7,2.5,7.5
            C348,74.3,350.3,75.2,353.5,75.2z M358.9,61.3c-0.2-5-2.5-7.5-6.9-7.5c-2.3,0-4.1,0.7-5.4,2c-1.3,1.3-2.1,3.1-2.4,5.5H358.9z"/>
        <path class="st1" d="M368.6,52.4c3.5-1.6,7-2.4,10.6-2.4c3.1,0,5.5,0.7,7.1,2.1c1.6,1.4,2.4,3.7,2.4,6.9v16.2h4.1V79h-8l-0.3-4.2
            h-0.2c-2.5,2.8-5.4,4.2-8.8,4.2c-2.8,0-4.9-0.7-6.4-2.1c-1.5-1.4-2.2-3.4-2.2-5.8c0-6.2,4.9-9.3,14.7-9.3h2.9v-2.9
            c0-1.7-0.5-2.9-1.4-3.8c-0.9-0.9-2.5-1.3-4.5-1.3c-3,0-6.4,0.8-9.9,2.4V52.4z M380.9,65.6c-6.4,0-9.5,1.7-9.5,5.2
            c0,1.5,0.4,2.6,1.3,3.3c0.9,0.7,2.1,1.1,3.7,1.1c2.9,0,5.7-1.4,8.2-4.2v-5.4H380.9z"/>
    </g>
</g>
</svg>
