<?xml version="1.0" encoding="UTF-8"?>
<svg width="1605px" height="585px" viewBox="0 0 1605 585" version="1.1" xmlns="http://www.w3.org/2000/svg" xmlns:xlink="http://www.w3.org/1999/xlink">
    <!-- Generator: Sketch 43.2 (39069) - http://www.bohemiancoding.com/sketch -->
    <title>wave</title>
    <desc>Created with Sketch.</desc>
    <defs></defs>
    <g id="Page-1" stroke="none" stroke-width="1" fill="none" fill-rule="evenodd">
        <g id="wave" fill-rule="nonzero">
            <polygon id="Combined-Shape" fill="#4E566F" points="1604 524.105125 1604 585 4 585 4 523.13 4 410.116375 4 47 1604 47"></polygon>
            <path d="M0,0 L4,214.4 C59.6,196 117.5,187.1 175.4,186.7 C278.2,185.9 378.6,209.4 474.7,241.2 C477.7,242.2 480.6,243.2 483.6,244.2 C667.2,306.2 849.3,390.3 1046,436.3 C1232.7,480 1422.3,470.7 1603.9,423.7 L1604,307 L0,0 Z" id="Shape" fill="#FAFAFA"></path>
            <path d="M1604,47 L0.5,1.5 L4,68.2 C63,48.6 124.6,40.7 185.8,44.4 C284,50.4 377.7,79.6 467.1,116.5 C469.9,117.6 472.6,118.8 475.4,119.9 C646.4,191.5 818.1,278.4 1006.7,327.6 C1205.5,379.4 1410.1,368.4 1604,312.8 L1604,202.231871 C1604.03333,202.221249 1604,47 1604,47 Z" id="Combined-Shape" fill="#FFFFFF"></path>
        </g>
    </g>
</svg>